<?xml version="1.0" encoding="utf-8"?>
<!-- Generator: Adobe Illustrator 21.0.0, SVG Export Plug-In . SVG Version: 6.00 Build 0)  -->
<svg version="1.1" id="Layer_1" xmlns="http://www.w3.org/2000/svg" xmlns:xlink="http://www.w3.org/1999/xlink" x="0px" y="0px"
	 viewBox="0 0 370.9 127.1" style="enable-background:new 0 0 370.9 127.1;" xml:space="preserve">
<style type="text/css">
	.st0{fill:url(#SVGID_1_);}
	.st1{fill:url(#SVGID_2_);}
	.st2{fill:url(#SVGID_3_);}
	.st3{fill:url(#SVGID_4_);}
	.st4{fill:url(#SVGID_5_);}
</style>
<title>Asset 15</title>
<g id="Layer_1-2">
	<linearGradient id="SVGID_1_" gradientUnits="userSpaceOnUse" x1="388.2889" y1="140.4395" x2="6.9217" y2="38.787">
		<stop  offset="0" style="stop-color:#3B8DE0"/>
		<stop  offset="1" style="stop-color:#66CDCC"/>
	</linearGradient>
	<path class="st0" d="M54.2,10c5.6,3.4,8.4,9.1,8.6,17.1c0.3,3.3-2,5-6.9,5.1s-7.5-1.6-7.8-5.2c-0.3-3.1-1.9-6-4.5-7.9
		c-2.5-1.9-5.9-2.8-10.2-2.8c-5.3,0-9.8,2.5-13.4,7.6s-5.3,12.2-5.3,21.4c0,10.7,1.8,18.4,5.5,23.1s7.9,7.1,12.8,7.1
		c5.8,0,10-1.4,12.7-4.2c2.6-2.5,4.1-6,4.2-9.6c0-3.4,2.5-5.1,7.6-5.1c5,0,7.4,1.7,7.1,5.1c-0.1,6.9-3,13.4-8.2,18
		c-5.3,4.9-13.1,7.3-23.4,7.3c-9.8,0-17.7-3.3-23.8-9.8C3.1,70.8,0,60.1,0,45.3C0,31.2,3.2,21,9.6,14.5s14.3-9.7,23.8-9.7
		C41.7,4.8,48.6,6.6,54.2,10z"/>
	<linearGradient id="SVGID_2_" gradientUnits="userSpaceOnUse" x1="410.5248" y1="57.0174" x2="29.1577" y2="-44.6351">
		<stop  offset="0" style="stop-color:#3B8DE0"/>
		<stop  offset="1" style="stop-color:#66CDCC"/>
	</linearGradient>
	<path class="st1" d="M244.6,20.2c2.1,0,4.1-0.7,5.6-2.1c1.6-1.2,2.5-3.1,2.4-5.1c0.1-2.1-0.8-4.2-2.4-5.5c-1.6-1.4-3.6-2.1-5.6-2.1
		c-2,0-4,0.7-5.4,2.1c-1.5,1.4-2.3,3.5-2.2,5.5c0,2,0.8,3.8,2.2,5.1C240.7,19.5,242.6,20.3,244.6,20.2z"/>
	<linearGradient id="SVGID_3_" gradientUnits="userSpaceOnUse" x1="393.0598" y1="122.5407" x2="11.6926" y2="20.8882">
		<stop  offset="0" style="stop-color:#3B8DE0"/>
		<stop  offset="1" style="stop-color:#66CDCC"/>
	</linearGradient>
	<path class="st2" d="M251,57.7c0-8.2,0.4-16.5,1.3-24.7c0.4-3.3-2.1-4.9-7.6-4.9c-5.5,0-8.1,1.6-7.6,4.9c1.1,8.2,1.7,16.4,1.7,24.7
		c0,5.7-0.4,11.3-0.9,17h-16L212,46.9c-0.9-2.6-3.4-4.3-6.2-4.2c-2.8,0.1-5.2,1.9-5.9,4.6l-14.2,48.3l-21-90.8
		C164,2.1,161.5,0,158.5,0c-2.9-0.1-5.5,1.8-6.2,4.6l-17.6,70h-12.1c-0.4-4.6-0.7-9-0.7-13.1c0-6.1,0.3-12.8,0.9-20.1
		c0.3-4.9-1.6-9.1-5.7-12.8c-4.1-3.6-9.4-5.6-14.8-5.4c-3.1,0-6.2,0.5-9.1,1.5c-2.6,0.8-4.9,2.4-6.4,4.7c0.3-3.4,0.6-6.5,0.8-9.2
		s0.4-5.7,0.6-9c0.4-3.4-2.1-5.1-7.6-5.1c-5.5,0-8,1.7-7.6,5.1c0.4,6.2,0.8,11.8,1,16.9s0.3,10.8,0.3,17.3c0,6.8-0.1,12.8-0.3,18.1
		c-0.2,5.3-0.6,11.2-1,17.8c-0.1,3.3,2.4,4.9,7.8,4.9s7.8-1.6,7.3-4.8c-0.4-5.6-0.9-10.9-1.2-15.7s-0.5-9.7-0.5-14.6
		c0.1-3.6,1.1-7.1,3.1-10.1c1.9-3.3,5.5-5.2,9.3-5c3.4,0,5.9,0.9,7.3,2.6c1.5,1.7,2.3,4.6,2.4,8.6c0.3,5,0.4,10.5,0.4,16.2
		c0,5.5-0.4,11.1-1.2,16.6c-0.1,0.5-0.2,1-0.2,1.4c-0.2,1,0.1,2.1,0.7,2.9c1.1,2,3.1,3.2,5.4,3.1h25.9c2.9,0.1,5.4-1.8,6.2-4.6
		l12.4-49.4l20.5,88.7c0.6,2.8,3.1,4.8,6,4.9h0.2c2.8,0,5.3-1.9,6.1-4.6l15.5-52.6l4.8,13.4c0.9,2.5,3.3,4.1,6,4.1H243
		c0.6,0,1.1,0.1,1.8,0.1s1.2,0,1.8-0.1h0.5c0.6,0,1.1-0.1,1.6-0.3c2.6-0.7,3.8-2.1,3.5-4.3C251.4,74.4,251,66,251,57.7z"/>
	<linearGradient id="SVGID_4_" gradientUnits="userSpaceOnUse" x1="401.9661" y1="89.127" x2="20.5989" y2="-12.5254">
		<stop  offset="0" style="stop-color:#3B8DE0"/>
		<stop  offset="1" style="stop-color:#66CDCC"/>
	</linearGradient>
	<path class="st3" d="M306.5,31.6c3.1,3,4.3,7.5,3.6,13.3c-0.6,6.9-0.8,13.4-0.7,19.5c0.1,6,0.3,12.6,0.8,19.6
		c0.3,2.6-2.1,3.8-7.1,3.6c-5-0.1-7.5-1.3-7.3-3.6c0.7-5.1,1-10.3,1-15.5c-0.1-4.4-0.2-9.6-0.5-15.5c0.1-3.3-0.3-6.6-1.4-9.7
		c-0.9-2.3-2.9-3.5-5.9-3.5c-3.8,0-6.6,1.5-8.4,4.6c-1.8,3.2-2.9,6.7-3.1,10.3c-0.1,5.7-0.2,10.5-0.2,14.6c0,4,0.2,9,0.6,14.8
		c0.3,2.6-2,3.8-7,3.6c-5-0.1-7.4-1.3-7.5-3.6c0.7-9.8,1.1-18.6,1.1-26.6s-0.4-16.6-1.1-26.1c0-2.4,2.4-3.6,7.2-3.7
		c4.8-0.1,7.2,1.3,7.2,4.1c1.8-1.6,4-2.8,6.4-3.5c2.9-0.8,5.9-1.3,8.9-1.2C298.9,27,303.4,28.5,306.5,31.6z"/>
	<linearGradient id="SVGID_5_" gradientUnits="userSpaceOnUse" x1="403.8652" y1="82.0022" x2="22.498" y2="-19.6503">
		<stop  offset="0" style="stop-color:#3B8DE0"/>
		<stop  offset="1" style="stop-color:#66CDCC"/>
	</linearGradient>
	<path class="st4" d="M351.4,28.1c1.8,0.4,3.4,1.4,4.6,2.8c-0.9-2.4,1.5-3.6,7-3.6s8.1,1.5,7.9,4.5c-0.6,8.2-1,16-1.2,23.4
		c-0.2,7.4-0.1,15,0.3,23c0.7,10.2-1.5,18-6.7,23.4c-5,5.3-12,8.2-19.2,8.1c-5.6,0-11.1-1.6-15.8-4.5c-4.9-2.7-7.9-7.8-8-13.4
		c-0.1-2.8,2-4.2,6.5-4.2c4.5,0,6.7,1.4,6.7,4.2c0,1.7,1.1,3.2,3.2,4.5c2.6,1.4,5.5,2,8.4,1.9c3.6,0.1,7-1.6,8.9-4.6
		c2.1-3,3-6.7,2.5-10.3c-1.6,1.6-3.5,2.9-5.7,3.8c-2.4,0.9-5,1.3-7.5,1.3c-4.8,0-10.1-2.2-16-6.5c-5.8-4.3-8.7-12.2-8.7-23.7
		c0-10.1,2.2-17.8,6.7-23.1c4.3-5.2,10.8-8.2,17.5-8C345.7,27,348.6,27.3,351.4,28.1z M335.7,45c-2.2,3.9-3.2,8.2-3.1,12.7
		c-0.1,4.5,1,9,3.2,13c2.1,3.5,4.9,5.3,8.3,5.3c3.4,0,6.3-1.7,8.7-5c2.4-3.3,3.6-7.6,3.6-12.9c0-6-1.1-10.5-3.4-13.6
		c-2-3-5.4-4.7-8.9-4.7C340.6,39.8,337.8,41.5,335.7,45z"/>
</g>
</svg>
