<svg xmlns="http://www.w3.org/2000/svg" viewBox="0 0 370.93 127.06"><defs><style>.cls-1{fill:#fff;}</style></defs><title>Asset 12</title><g id="Layer_2" data-name="Layer 2"><g id="Layer_1-2" data-name="Layer 1"><path class="cls-1" d="M54.16,10q8.34,5.12,8.56,17.13.44,4.89-6.9,5.12T48,27.08a11.12,11.12,0,0,0-4.45-7.9Q39.81,16.4,33.36,16.4q-8,0-13.35,7.56T14.68,45.32q0,16,5.45,23.13t12.79,7.12q8.67,0,12.68-4.23a14.47,14.47,0,0,0,4.23-9.56q0-5.12,7.56-5.12t7.12,5.12a24.22,24.22,0,0,1-8.23,18q-8,7.34-23.35,7.34-14.68,0-23.8-9.79T0,45.32Q0,24.19,9.56,14.51t23.8-9.68Q45.82,4.84,54.16,10Z"/><path class="cls-1" d="M244.61,20.24a8.36,8.36,0,0,0,5.63-2.11A6.54,6.54,0,0,0,252.69,13a7,7,0,0,0-2.45-5.53,8.36,8.36,0,0,0-5.63-2.11,7.6,7.6,0,0,0-5.42,2.11A7.27,7.27,0,0,0,237,13a6.8,6.8,0,0,0,2.23,5.13A7.6,7.6,0,0,0,244.61,20.24Z"/><path class="cls-1" d="M251,57.66A227.64,227.64,0,0,1,252.26,33q.64-4.89-7.65-4.89T237,33a177.25,177.25,0,0,1,1.7,24.66c0,5.66-.36,11.33-.88,17h-16L212,46.94a6.27,6.27,0,0,0-6.16-4.15,6.4,6.4,0,0,0-5.93,4.6L185.66,95.71l-21-90.8A6.35,6.35,0,0,0,158.52,0a6.21,6.21,0,0,0-6.22,4.61l-17.63,70H122.54c-.4-4.57-.68-9-.68-13.14q0-9.21.89-20.07.44-7.32-5.67-12.76a21.51,21.51,0,0,0-14.79-5.43,27.41,27.41,0,0,0-9.12,1.55,12.05,12.05,0,0,0-6.45,4.66q.44-5.1.78-9.2t.56-9q.67-5.09-7.56-5.1t-7.56,5.1q.67,9.31,1,16.85t.33,17.31q0,10.2-.33,18.08t-1,17.85q-.22,4.88,7.78,4.88T88,81.35q-.67-8.45-1.22-15.68T86.27,51.1A19,19,0,0,1,89.38,41a10.28,10.28,0,0,1,9.34-5q5.12,0,7.34,2.56t2.45,8.56q.44,7.56.44,16.24a126.72,126.72,0,0,1-1.18,16.58,7.16,7.16,0,0,0-.16,1.44,3.57,3.57,0,0,0,.71,2.89,5.88,5.88,0,0,0,5.38,3.12h25.92a6.18,6.18,0,0,0,6.16-4.61l12.42-49.39,20.51,88.74a6.37,6.37,0,0,0,6,4.94l.19,0a6.35,6.35,0,0,0,6.09-4.55l15.51-52.58,4.76,13.38a6.18,6.18,0,0,0,6,4.05H243c.56,0,1.15.07,1.79.07s1.23,0,1.78-.07h.51a4.15,4.15,0,0,0,1.65-.35c2.61-.65,3.79-2.05,3.49-4.26A239.66,239.66,0,0,1,251,57.66Z"/><path class="cls-1" d="M306.48,31.62q4.68,4.57,3.61,13.29-.85,10.42-.74,19.45T310.1,84q.43,3.83-7.12,3.61T295.64,84a117.58,117.58,0,0,0,1-15.52q-.11-6.59-.53-15.52a27.18,27.18,0,0,0-1.38-9.67q-1.38-3.51-5.85-3.51-5.74,0-8.4,4.57a23.71,23.71,0,0,0-3.08,10.31q-.21,8.5-.21,14.56T277.78,84q.43,3.83-7,3.61T263.32,84q1.06-14.67,1.06-26.58T263.32,31.3q0-3.61,7.23-3.72t7.23,4.15a16.34,16.34,0,0,1,6.38-3.51A30.66,30.66,0,0,1,293.09,27Q301.8,27,306.48,31.62Z"/><path class="cls-1" d="M351.35,28.11A9.09,9.09,0,0,1,356,30.87q-1.28-3.61,7-3.61t7.87,4.47q-.85,12.33-1.17,23.39t.32,23q1.06,15.31-6.7,23.39a25.61,25.61,0,0,1-19.24,8.08,30.65,30.65,0,0,1-15.84-4.47,15.51,15.51,0,0,1-8-13.4q-.21-4.25,6.48-4.25t6.7,4.25q0,2.55,3.19,4.47A16,16,0,0,0,345,98.06a10.27,10.27,0,0,0,8.93-4.57,14.62,14.62,0,0,0,2.55-10.31A17.29,17.29,0,0,1,350.81,87a19.77,19.77,0,0,1-7.55,1.28q-7.23,0-15.95-6.48T318.6,58.09q0-15.1,6.7-23.07a21.8,21.8,0,0,1,17.54-8A28.94,28.94,0,0,1,351.35,28.11ZM335.72,45a24.43,24.43,0,0,0-3.08,12.65,24.78,24.78,0,0,0,3.19,13q3.19,5.32,8.29,5.32t8.72-5q3.61-5,3.61-12.86,0-8.93-3.4-13.61a10.54,10.54,0,0,0-8.93-4.68Q338.8,39.8,335.72,45Z"/></g></g></svg>