<?xml version="1.0" encoding="utf-8"?>
<!-- Generator: Adobe Illustrator 21.0.0, SVG Export Plug-In . SVG Version: 6.00 Build 0)  -->
<svg version="1.1" id="Layer_1" xmlns="http://www.w3.org/2000/svg" xmlns:xlink="http://www.w3.org/1999/xlink" x="0px" y="0px"
	 viewBox="0 0 145.5 126.5" style="enable-background:new 0 0 145.5 126.5;" xml:space="preserve">
<style type="text/css">
	.st0{fill:url(#_Compound_Path__1_);}
</style>
<title>LogoWOBackGroundedColor</title>
<g id="Layer_2">
	<g id="Layer_1-2">
		<linearGradient id="_Compound_Path__1_" gradientUnits="userSpaceOnUse" x1="148.6402" y1="63.2631" x2="-8.0142" y2="63.2631">
			<stop  offset="0" style="stop-color:#FFFFFF"/>
			<stop  offset="0" style="stop-color:#3B8DE0"/>
			<stop  offset="0.1565" style="stop-color:#459CDB"/>
			<stop  offset="0.4823" style="stop-color:#57B7D3"/>
			<stop  offset="0.7727" style="stop-color:#62C7CE"/>
			<stop  offset="0.9964" style="stop-color:#66CDCC"/>
		</linearGradient>
		<path id="_Compound_Path_" class="st0" d="M145.5,80.7c0,3.5-2.8,6.3-6.3,6.3c0,0,0,0,0,0h-29.7c-2.7,0.1-5.1-1.5-6-4l-4.7-13.4
			L83.3,122c-0.8,2.7-3.3,4.5-6.1,4.5H77c-2.9-0.1-5.4-2.1-6-4.9L50.6,33.2L38.3,82.4c-0.7,2.8-3.3,4.7-6.1,4.6H6.3
			C2.8,87,0,84.2,0,80.7c0-3.5,2.8-6.3,6.3-6.3h20.9L44.8,4.6c0.7-2.8,3.3-4.7,6.2-4.6c2.9,0,5.4,2.1,6.1,4.9l21,90.4l14.2-48.1
			c0.8-2.6,3.1-4.5,5.8-4.6c2.7-0.1,5.2,1.6,6.1,4.1l9.8,27.6h25.2C142.6,74.3,145.5,77.1,145.5,80.7
			C145.5,80.6,145.5,80.6,145.5,80.7z"/>
	</g>
</g>
</svg>
