<svg xmlns="http://www.w3.org/2000/svg" xmlns:xlink="http://www.w3.org/1999/xlink" viewBox="0 0 109.29 143.02"><defs><style>.cls-1{fill:url(#linear-gradient);}.cls-2{fill:url(#linear-gradient-2);}.cls-3{fill:url(#linear-gradient-3);}.cls-4{fill:url(#linear-gradient-4);}.cls-5{fill:url(#linear-gradient-5);}.cls-6{fill:url(#linear-gradient-6);}.cls-7{fill:url(#linear-gradient-7);}.cls-8{fill:url(#linear-gradient-8);}.cls-9{fill:url(#linear-gradient-9);}.cls-10{fill:url(#linear-gradient-10);}.cls-11{fill:url(#linear-gradient-11);}.cls-12{fill:url(#linear-gradient-12);}</style><linearGradient id="linear-gradient" x1="97.46" y1="40.58" x2="121.11" y2="81.55" gradientUnits="userSpaceOnUse"><stop offset="0" stop-color="#00b7bf"/><stop offset="1" stop-color="#7ac57d" stop-opacity="0.94"/></linearGradient><linearGradient id="linear-gradient-2" x1="83.32" y1="67.89" x2="93.46" y2="85.46" xlink:href="#linear-gradient"/><linearGradient id="linear-gradient-3" x1="40.98" y1="64.73" x2="81.96" y2="135.71" xlink:href="#linear-gradient"/><linearGradient id="linear-gradient-4" x1="7.84" y1="83.86" x2="13.06" y2="92.91" xlink:href="#linear-gradient"/><linearGradient id="linear-gradient-5" x1="9.66" y1="57.38" x2="9.66" y2="57.38" xlink:href="#linear-gradient"/><linearGradient id="linear-gradient-6" x1="85.86" y1="35.21" x2="90.92" y2="43.97" xlink:href="#linear-gradient"/><linearGradient id="linear-gradient-7" x1="84.16" y1="47.87" x2="92.62" y2="62.52" xlink:href="#linear-gradient"/><linearGradient id="linear-gradient-8" x1="15.83" y1="5.12" x2="36.92" y2="41.65" xlink:href="#linear-gradient"/><linearGradient id="linear-gradient-9" x1="62.7" y1="34.35" x2="62.7" y2="34.35" xlink:href="#linear-gradient"/><linearGradient id="linear-gradient-10" x1="24.59" y1="42.76" x2="24.59" y2="42.76" xlink:href="#linear-gradient"/><linearGradient id="linear-gradient-11" x1="41.83" y1="35.28" x2="41.83" y2="35.28" xlink:href="#linear-gradient"/><linearGradient id="linear-gradient-12" x1="60.31" y1="3.57" x2="94.06" y2="62.03" xlink:href="#linear-gradient"/></defs><title>Asset 3</title><g id="Layer_2" data-name="Layer 2"><g id="Layer_1-2" data-name="Layer 1"><path class="cls-1" d="M99.62,57.38a54.37,54.37,0,0,1,9.65,31V33.75A33.63,33.63,0,0,1,99.62,57.38Z"/><line class="cls-2" x1="88.39" y1="88.39" x2="88.39" y2="64.96"/><path class="cls-3" d="M88.39,65V88.39a33.75,33.75,0,1,1-67.5,0H0a54.64,54.64,0,1,0,99.62-31A33.79,33.79,0,0,1,88.39,65Z"/><line class="cls-4" x1="0.01" y1="88.39" x2="20.89" y2="88.39"/><path class="cls-5" d="M9.66,57.38"/><line class="cls-6" x1="88.39" y1="45.43" x2="88.39" y2="33.75"/><line class="cls-7" x1="88.39" y1="64.96" x2="88.39" y2="45.43"/><path class="cls-8" d="M24.59,42.76A12.85,12.85,0,1,1,43,24.82,33.77,33.77,0,0,1,54.64,7.26a33.74,33.74,0,0,0-45,50.12A54.92,54.92,0,0,1,24.59,42.76Z"/><path class="cls-9" d="M62.7,34.35"/><path class="cls-10" d="M24.59,42.76"/><path class="cls-11" d="M41.83,35.28"/><path class="cls-12" d="M75.54,0A33.75,33.75,0,0,0,41.79,33.75c0,.51,0,1,0,1.53,1.56-.37,3.14-.69,4.75-.93a54.77,54.77,0,0,1,16.13,0c0-.2,0-.4,0-.6a12.86,12.86,0,1,1,25.71,0V65A33.75,33.75,0,0,0,75.54,0Z"/></g></g></svg>